<svg id="图层_3" data-name="图层 3" xmlns="http://www.w3.org/2000/svg" viewBox="0 0 206.53 206.45"><defs><style>.cls-1{fill:#a0141a;}</style></defs><path class="cls-1" d="M1090.66,316.34c-22.68,10.59-39.65,27.39-49.83,50.2a97.42,97.42,0,0,0-8.68,41.16c.2,16.14,3.56,29.45,8.94,41a99,99,0,0,0,20.45,29.56,100.23,100.23,0,0,0,29.65,20.36,98.3,98.3,0,0,0,41.17,8.67,99.1,99.1,0,0,0,70.55-29.38,100.75,100.75,0,0,0,29.21-70.82,100.32,100.32,0,0,0-8.95-41,97.27,97.27,0,0,0-20.44-29.57,100.26,100.26,0,0,0-70.91-29.13c-16.31.18-29.8,3.65-41.16,8.95m35.59-12c17.2-.83,32.36,2,44.61,7a98,98,0,0,1,31.43,20.1c8.93,8.59,16.48,17.71,22.3,29.3a100.31,100.31,0,0,1,10.63,40.9c.82,17.36-2.09,32.26-7.09,44.53A97.2,97.2,0,0,1,1208,477.55c-8.45,8.78-17.7,16.37-29.3,22.21a99.6,99.6,0,0,1-40.81,10.72c-17.12.8-32.31-2.11-44.52-7.09a99.35,99.35,0,0,1-31.52-20A104.8,104.8,0,0,1,1039.67,454,100.14,100.14,0,0,1,1029,413.19c-.83-17.42,2.22-32.6,7.08-44.53a97.68,97.68,0,0,1,20-31.51,103.42,103.42,0,0,1,29.3-22.22,100.41,100.41,0,0,1,40.9-10.62" transform="translate(-1028.82 -304.16)"/><path class="cls-1" d="M1131,320.23c2.3-.27,3.51-3.81,2.47-5.92a3.58,3.58,0,0,0-4.69-1.33c-1.76.89-1.9,3.91-1.06,5.84a3.6,3.6,0,0,0,3.28,1.41m4.16.54c-4.83,3.72-11.06,1.18-10.72-5a5.31,5.31,0,0,1,4.69-5.32c4.93-.67,8.57,2.4,7.43,7.52a9.87,9.87,0,0,1-1.4,2.84" transform="translate(-1028.82 -304.16)"/><path class="cls-1" d="M1143.69,314c-1.45,1-2,4.43-.8,6a3.79,3.79,0,0,0,4.52.62c1.29-.79,2.2-3.82,1.42-5.58a3.22,3.22,0,0,0-3.29-1.59,3.36,3.36,0,0,0-1.85.53m5.75,8.41a8.37,8.37,0,0,1-5.31.88,6.27,6.27,0,0,1-4.51-3.36,7.47,7.47,0,0,1,.7-6.38c1.73-2.5,6.25-3.23,9.22-1.5,3.51,2.07,2.73,7.93-.1,10.36" transform="translate(-1028.82 -304.16)"/><path class="cls-1" d="M1118.54,312.18c.3,3.58,1,6.89,1.25,10.45-1,.18-1.87.2-2.75.36-.23-1.59-.59-3.1-.71-4.61-1.73.17-3.29.54-5,.8.48,1.61.7,2.91,1.07,4.59a24.79,24.79,0,0,1-2.75.54c-.78-3.54-1.73-6.83-2.65-10.36,1.16-.2,2-.5,3.09-.63.14,1.46.68,2.6.8,3.81,1.74-.23,3.38-.62,5-.79,0-1.32-.51-2.73-.53-3.9a10.9,10.9,0,0,1,3.18-.26" transform="translate(-1028.82 -304.16)"/><path class="cls-1" d="M1158.29,314.14a11,11,0,0,1,3.55.87c-1.13,2.9-1.94,5.49-3,8.59.79.63,2.35.47,3.1,1.15a26.13,26.13,0,0,1,3.17,1,8.55,8.55,0,0,1-.78,1.95,14.73,14.73,0,0,1-4.52-1.43,30.38,30.38,0,0,1-4.7-1.23c1-3.56,2.15-7.08,3.19-10.88" transform="translate(-1028.82 -304.16)"/><path class="cls-1" d="M1104.65,319.26a2.66,2.66,0,0,1-1.15.44c-.45.15-1,.48-1.33.44-.81-.08-1-1-1.68-1.15a4.42,4.42,0,0,0-2.65.71c-2.48,1.81-.2,6.89,2.47,6.82a2.72,2.72,0,0,0,2.66-3,20.94,20.94,0,0,1,2.74-.88c-.07.57.1,1.24,0,1.77-.51,2.67-3.52,4.58-6.37,4.43-5-.28-7.2-7.68-3.37-10.62,2.22-1.71,7.86-2.39,8.68,1.05" transform="translate(-1028.82 -304.16)"/><path class="cls-1" d="M1091,324.31c-.69.42-1.52.72-2.22,1.15-.82-1.59-4.24,0-4.32,1.33-.13,2,2.08.65,3.09.35,1.61-.46,4.28-1.38,5.49.36,1.74,2.48-.54,5.17-2.56,6.19-1.72.88-4.6,1.57-5.84-.8.58-.74,1.31-.8,2-1.42,1.15,2.12,6-.79,4-2.47-2.65-.1-3.58,1.52-5.93,1.42a3,3,0,0,1-2.75-2.74c-.18-2.66,2.75-4.66,5.13-5.23,1.25-.29,3.46.14,3.9,1.86" transform="translate(-1028.82 -304.16)"/><path class="cls-1" d="M1176.62,331.3a2.92,2.92,0,0,0,3.45,1.78c1.27-.35,2.94-2.59,3-4.08a2.69,2.69,0,0,0-3.36-2.92c-1.61.26-3.79,2.94-3.1,5.22m2.56-7.53c3.94-.41,7.24,2.53,6.38,6.39a8.78,8.78,0,0,1-2.13,3.71,6.63,6.63,0,0,1-2.47,1.5c-3.61.72-6.68-1.81-6.91-4.59-.28-3.42,1.84-6.65,5.13-7" transform="translate(-1028.82 -304.16)"/><path class="cls-1" d="M1129.43,327.06c-12.84,0-23.43,3.7-32.4,7.87-9.25,4.31-16.6,10.37-23.19,17.09a74.58,74.58,0,0,0-16,24.25,79.9,79.9,0,0,0-6,34.18c1.22,25.58,11.14,42.23,24.89,55.67A76.14,76.14,0,0,0,1101,482.05a78.47,78.47,0,0,0,34.07,6.12,91.87,91.87,0,0,0,17.71-2.39,80,80,0,0,0,14.78-5.41c9.05-4.2,16.38-10.25,23.19-17.08a75.49,75.49,0,0,0,16-24.26,77,77,0,0,0,6.12-34.08,90.77,90.77,0,0,0-2.4-17.7c-4-16.18-12.23-27.9-22.4-38.07a75.55,75.55,0,0,0-24.25-16,79.8,79.8,0,0,0-34.26-6.1Zm-.26-2.05a82,82,0,0,1,35.23,6.12,83.72,83.72,0,0,1,25,16.2A80.18,80.18,0,0,1,1207,371.05a82.78,82.78,0,0,1,8.24,33,81.64,81.64,0,0,1-6.11,35.23,83.09,83.09,0,0,1-16.29,25,80.76,80.76,0,0,1-23.73,17.53c-9.32,4.7-20,7.62-33,8.24-27.13,1.28-46.36-9.62-60.21-22.22a79.41,79.41,0,0,1-17.51-23.72,82.62,82.62,0,0,1,14-93.22A79.35,79.35,0,0,1,1111,327.68a85.05,85.05,0,0,1,18.14-2.67" transform="translate(-1028.82 -304.16)"/><path class="cls-1" d="M1079,338.83c-.49.86-1.41,1.3-2,2a39.17,39.17,0,0,1-3.19-3.71,35.45,35.45,0,0,0-3.44,3.27c1.13,1.13,2.18,2.35,3.36,3.45a10.31,10.31,0,0,1-2,2.13c-2.47-2.68-5.16-5.16-7.79-7.7a10,10,0,0,1,2-2.31c1.06.86,1.93,1.91,2.92,2.84,1-1.19,2.29-2.18,3.36-3.37-.79-1.07-1.81-1.9-2.56-3,.79-.64,1.27-2,2.56-1.86,2.29,2.79,4.43,5.57,6.82,8.23" transform="translate(-1028.82 -304.16)"/><path class="cls-1" d="M1201.93,346.61a9.5,9.5,0,0,0,2.13,2.84c3.63,0,1.66-3.85.26-4.86a11.38,11.38,0,0,1-2.39,2m-1.85,1.78c-1.17.6-2.2,2.11-3.63,2.74-.34-.73-.79-1.35-1.15-2,2.92-2.77,6-5.4,9-8.06.11,0,.16,0,.18.09,1.12,1.11,2.49,2.69,3.63,4.07a5.14,5.14,0,0,1,1.15,3.81,4.66,4.66,0,0,1-4.16,3.72c-3,.15-3.83-2.56-5-4.34" transform="translate(-1028.82 -304.16)"/><path class="cls-1" d="M1067.29,349.18a5.8,5.8,0,0,1,0,2.31,7.45,7.45,0,0,1-3.89,3.8c-2.31.72-5.21-.65-6.37-2a10.26,10.26,0,0,1-.54-1c-2.08-3.64,1.51-10.08,5.93-9.66a3,3,0,0,1,1.6.79c-.64.77-1.26,1.52-1.86,2.31-2.07-1-4.22,1.7-3.8,3.81.34,1.71,2.07,2.48,3.09,3.19a3.42,3.42,0,0,0,3.63-5c-.85.49-1.14,1.51-1.86,2.12-.66-.22-.9-.88-1.59-1.06a17.38,17.38,0,0,1,2.56-3.45c.21-.26.63-1.05.89-1.07.48,0,1.86,1.75,2.21,2.05a29.07,29.07,0,0,1,2.3,1.94,8.85,8.85,0,0,1-1.15,1.59,4.35,4.35,0,0,1-1.15-.71" transform="translate(-1028.82 -304.16)"/><path class="cls-1" d="M1212,352.29a64.33,64.33,0,0,1,5,9,5.32,5.32,0,0,1-2.11.79c-.73-1.76-2.14-4.11-3.2-6.1-.61.27-1.19.57-1.77.88a58.12,58.12,0,0,1,2.93,5.59,11.46,11.46,0,0,1-2,.79c-.8-1.44-1.78-3.53-2.83-5.22-.83.25-1.31.86-2.22,1.06a36.73,36.73,0,0,1,3.11,5.94,7.42,7.42,0,0,0-1.76.79c-1.21-2.55-2.84-5-4.34-7.88a61.2,61.2,0,0,1,6.63-4.25,8.45,8.45,0,0,1,2.57-1.41" transform="translate(-1028.82 -304.16)"/><path class="cls-1" d="M1061.45,359.63a22.58,22.58,0,0,1-1.33,2.3c-3.4-1.81-6.35-3.77-9.38-5.58a21,21,0,0,1,1.41-2.56c3.3,1.84,6.57,4.19,9.3,5.84" transform="translate(-1028.82 -304.16)"/><path class="cls-1" d="M1224.42,378.4a9.79,9.79,0,0,1,.8,2.65c-2.79,1-6.57,1.91-10.1,2.83a17.58,17.58,0,0,1-.61-2.48c3.29-1.06,6.83-2.24,9.91-3" transform="translate(-1028.82 -304.16)"/><path class="cls-1" d="M1046.94,383.45c-1.3-1.05-4.46-1.68-5.4-.18-.65,1-.37,1.94-.89,3.45,2.18.58,4.51.88,6.73,1.6.65-2.07,1-3.66-.44-4.87m2,7.69c-3.73-.6-7.18-1.48-11-2a28,28,0,0,1,.79-4.34c.59-2.36,1.45-5,4.18-5.22,3.36-.31,8.2,2.23,7.25,6.46-.38,1.67-.73,3.16-1.25,5.13" transform="translate(-1028.82 -304.16)"/><path class="cls-1" d="M1223.36,388a63.21,63.21,0,0,1-7,1.24,21.81,21.81,0,0,0-.45-2.38c3.33-.63,7-1.68,10.18-2.21.57.67.4,2.06.88,2.82a79.69,79.69,0,0,1-5.92,5.85c2.7-.27,4.29-.63,6.91-.8a27.17,27.17,0,0,0,.43,2.75c-3.45.4-7,.72-10.61,1.15a12.65,12.65,0,0,1-.46-2.48c1.92-2.08,4.2-3.76,6-5.94" transform="translate(-1028.82 -304.16)"/><path class="cls-1" d="M1039.5,392.91c-.36,2.1-.64,4.27-.89,6.47a13.34,13.34,0,0,0,2.13.35c0-2.13.43-3.93.62-5.94.79,0,1.45.21,2.21.27-.1,2-.59,3.67-.7,5.67.59.38,1.77.16,2.56.36.29-2.13.5-4.35.88-6.38.77,0,1.4.2,2.13.26-.31,2.95-.73,5.77-1,8.78-3.71-.25-7.52-.4-11.24-.63a78.92,78.92,0,0,1,1.06-9.48c.78.07,1.48.19,2.22.27" transform="translate(-1028.82 -304.16)"/><path class="cls-1" d="M1219.73,408.41a8.68,8.68,0,0,1-1.5-2.75c-.72-3.8,1.7-7,5.39-7s5.91,2.89,6.11,6.2c.16,2.76-.68,6-3.72,6-.24-1,.22-1.83,0-2.75a3.51,3.51,0,0,0,.8-5.13c-1.12-1.51-3.37-1.65-5.22-.79-2.07,1.42-1.4,5.31,1,5.92,0-1-.15-1.86-.1-2.91.85,0,1.18,0,2,0,0,1.83.23,3.57.09,5.58-2-.1-4-.16-5.93-.36a10.11,10.11,0,0,1-.1-2c.56,0,.87-.14,1.16,0" transform="translate(-1028.82 -304.16)"/><path class="cls-1" d="M1038.17,405c.08,1.33-.15,2.56,0,3.7,2.83.09,6.19-.14,9.11-.07.09.88-.13,1.83,0,2.47-3,.17-6.12.28-9.11.44.11,1.39,0,2.48.18,3.72q-1.06.18-2.22.27c-.15-3.44-.23-6.8-.09-10.63.81-.06,1.36.12,2.13.1" transform="translate(-1028.82 -304.16)"/><path class="cls-1" d="M1043.39,420.89c-1.26.77-2.33,1.2-3.63,1.95,1.46.07,2.88.66,4.16.61a8.8,8.8,0,0,0-.53-2.56m4-4.87a10.19,10.19,0,0,1,.43,2.56,7.85,7.85,0,0,1-2.21,1.16,27.84,27.84,0,0,0,.62,4.06,15.49,15.49,0,0,0,2.4.37,24.36,24.36,0,0,0,.34,2.65c-4-.56-7.85-1.13-11.77-1.94a12,12,0,0,1-.44-3.29c3.54-2,7.11-4,10.63-5.57" transform="translate(-1028.82 -304.16)"/><path class="cls-1" d="M1228.4,421.85c-.06,1.12-.39,2-.52,3-2,0-5.22-1.35-7.27-1.24-1.8.08-2.77,3.46-.62,4.25s4.94.88,6.81,1.58c-.16,1.09-.52,1.94-.7,3-1.87-.36-3.61-1-5.58-1.51-1.22-.27-2.76-.68-3.46-1.77-.94-1.5-.49-4.3.2-5.75a4,4,0,0,1,4.42-2.57c2.16.18,4.69.75,6.72,1" transform="translate(-1028.82 -304.16)"/><path class="cls-1" d="M1049.59,429c.26,1.06.27,1.42.53,2.47-3.86,1-7.17,2.14-11,3.19a19,19,0,0,1-.62-2.83c3.7-.85,7-2,11.06-2.83" transform="translate(-1028.82 -304.16)"/><path class="cls-1" d="M1215,432.75c3.06,1.05,6.74,2.22,10,3.36-.24,1.26-.71,1.82-1,3.1a73.72,73.72,0,0,1-8.24,1.86c2.66,1.3,3.73,1.64,6.29,2.92a8.63,8.63,0,0,1-1.06,2.66c-3.51-1.47-6.38-3.07-9.65-4.7.25-.88.69-1.62,1-2.47a79.44,79.44,0,0,0,8.32-1.77,54.83,54.83,0,0,0-6.54-2.39,7.89,7.89,0,0,1,.88-2.57" transform="translate(-1028.82 -304.16)"/><path class="cls-1" d="M1050.83,433.73c.86,2.74,1.7,4.73,2.66,7.52-3.33,1.1-6.94,3.13-10.45,4.34-.57-.59-.79-1.89-1.15-2.4,2.75-1.53,6-2.41,8.58-3.53a41,41,0,0,1-1.85-5.32c.83-.12,1.49-.65,2.21-.61" transform="translate(-1028.82 -304.16)"/><path class="cls-1" d="M1055.88,446.31c-3.19,1.67-6.06,3.4-9.48,5.11a7.78,7.78,0,0,1-1.24-2.57c3.7-2,6.23-3.19,9.82-4.87.33.95.57,1.22.9,2.33" transform="translate(-1028.82 -304.16)"/><path class="cls-1" d="M1219.46,450a11.14,11.14,0,0,1-1.58,2.84c-2.91-1.71-6.44-3.8-9.31-5.58a18,18,0,0,0,1.24-2.39c3.42,1.56,6.33,3.72,9.65,5.13" transform="translate(-1028.82 -304.16)"/><path class="cls-1" d="M1053.57,451.34a31.26,31.26,0,0,0,2.39,4.25c1.3-.75,2.63-1.79,3.72-2.48a20.67,20.67,0,0,1,1.41,2.13c-3,2.3-5.72,4.28-8.94,6.54-1.61-2.51-3.56-5.17-4.5-8.06.41-.37,1-.56,1.58-1,1.1,1.74,2.1,3.58,3.1,5.39.59-.41,1.13-.87,1.77-1.24-.71-1.54-1.74-3-2.56-4.68.8-.17,1-1,2-.89" transform="translate(-1028.82 -304.16)"/><path class="cls-1" d="M1215.83,455.05a11.32,11.32,0,0,1-1.41,2.75,65.72,65.72,0,0,1-7.62-2.13c1.45,2.05,3.38,4.83,4.79,6.91a8.92,8.92,0,0,1-1.78,2.66A104.89,104.89,0,0,0,1203.7,455c.33-.81.8-1.45,1.15-2.21a96.29,96.29,0,0,0,11,2.29" transform="translate(-1028.82 -304.16)"/><path class="cls-1" d="M1208.31,467.63a74,74,0,0,1-6.2,7.61c-.66-.34-1-1-1.42-1.59,1.54-1.57,2.85-3.35,4.26-5-.3-.67-.92-1-1.43-1.5-1.14,1.61-2.64,3.28-3.79,4.6a4.39,4.39,0,0,1-1.51-1.52c1.27-1.45,2.56-2.91,3.71-4.51a11.51,11.51,0,0,0-1.85-1.77,23.68,23.68,0,0,1-2.83,3.29c-.49.41-1,1.65-1.33,1.67s-1-1.36-1.42-1.49c1.78-2.42,3.84-4.32,5.49-7,3,2.21,5.48,4.91,8.32,7.26" transform="translate(-1028.82 -304.16)"/><path class="cls-1" d="M1062.6,465c1.09-1,2.18-2.07,3.37-3,.76.41,1.16,1.19,1.76,1.76-2.59,2.72-5.31,5.3-8,7.88a61.56,61.56,0,0,1-5.93-7.35,4.68,4.68,0,0,1,1.77-1.32c1.18,1.69,2.53,3.26,3.72,5,.69-.39,1-1.09,1.77-1.42a30.65,30.65,0,0,1-3.28-4.43,15.5,15.5,0,0,0,1.51-1.23,38.78,38.78,0,0,1,3.36,4.15" transform="translate(-1028.82 -304.16)"/><path class="cls-1" d="M1194.42,476.22c-.62.83-1.87,1.5-2.58,2.3s-.82,2.18.19,2.56c1.61.63,3.1-2.25,4-2.83-.29-.58-1.12-1.33-1.58-2m5,1.77c-1.58,1.29-4,4.45-6.29,5.57a3,3,0,0,1-3.81-4.25c-2.16.74-2.52-2.13-3.63-2.92-.28-.2-.61.09-.8-.34a15.38,15.38,0,0,1,2.32-1.86c.82.29,1.54,2.76,2.56,2.91s2.46-2.05,3.27-2.48c-.69-1.26-1.76-2.14-2.47-3.35.43-.7,1.19-1,1.59-1.79h.26c2.29,2.89,4.78,5.57,7,8.51" transform="translate(-1028.82 -304.16)"/><path class="cls-1" d="M1091,482.32c-1.5,3.54-3.53,6.74-5.31,10.36a72,72,0,0,1-8-5.14c.2-.86.88-1.24,1.15-2,1.59,1.41,3.66,2.35,5.32,3.71.55-.42.67-1.28,1.15-1.77-1.64-1.07-3.33-2.12-4.88-3.28.4-.62.71-1.3,1.15-1.86,1.72.92,3.3,2.22,4.78,3.1.54-.65.86-1.5,1.34-2.21-1.62-1.31-3.63-2.22-5.14-3.64a6.09,6.09,0,0,1,1.15-1.85,81.68,81.68,0,0,0,7.34,4.6" transform="translate(-1028.82 -304.16)"/><path class="cls-1" d="M1184.76,480.37c-.46.73-1.37,1-2,1.51-1.39-1.93-6.27.93-4.16,2.74,2.55,0,3.51-1.43,5.67-1.59s3.4,1.5,3.19,3.54c-.22,2.22-3.43,4.43-5.31,4.79-1.55.28-3.43-.23-4.08-1.69.51-.74,1.58-.91,2.3-1.42.59.09.59.63,1.24.71,1.34.17,3.45-1.43,3.37-2.48-.12-1.56-2.42-.38-3.37-.09-1.15.36-2.67,1.21-4.34.7-1.84-.52-2.24-3.68-.88-5.48a9,9,0,0,1,4.79-2.83,3.32,3.32,0,0,1,3.62,1.59" transform="translate(-1028.82 -304.16)"/><path class="cls-1" d="M1171.84,483.83c1.36,3.23,3,6.91,4.24,10.54-.87.4-1.83.76-2.74,1.14-1.39-3.51-2.73-7.06-4-10.7.9-.21,1.5-.68,2.48-1" transform="translate(-1028.82 -304.16)"/><path class="cls-1" d="M1096.69,485.06c-.65,1.71-1.46,3.31-2,4.79,1.41.72,3,1.22,4.52,1.84.52-1.35,1.28-3.16,1.76-4.84,1.34.25,1.83.65,3,.78-1.29,3.64-2.58,7.5-3.89,11.34-1.28-.06-1.92-.73-3.1-.89.15-1.7,1-2.76,1.41-4.16-1.5-.71-3.17-1.26-4.68-1.95-.67,1.43-1.1,2.56-1.86,3.89-.88-.48-1.93-.78-2.75-1.33,1.65-3.56,3.22-6.84,5-10.53a21.94,21.94,0,0,1,2.57,1.06" transform="translate(-1028.82 -304.16)"/><path class="cls-1" d="M1161.66,487.1a13.42,13.42,0,0,1,1.51,3.8c.67,1.93,1.32,3.72,1.85,5.41,1.43-.56,2.73-1.23,4.16-1.78.2.85.63,1.45.79,2.31a23.23,23.23,0,0,1-3,1.24,59.62,59.62,0,0,1-8.67,3.28c-.09-.9-.55-1.4-.54-2.39,1.53-.32,2.62-1,4.17-1.32-1-3.2-1.91-6.32-2.84-9.4.54-.55,1.64-.68,2.57-1.15" transform="translate(-1028.82 -304.16)"/><path class="cls-1" d="M1110.49,489.58c1.36.12,2.09.44,3.28.62-.43,3.23-1.4,6.21-1.94,9.56,1.5.41,3.21.62,4.86.89a15.38,15.38,0,0,1-.36,2.39,102.1,102.1,0,0,1-13.36-3c.13-.85.45-1.25.61-2.21,1.71.14,2.76,1,4.53,1.06.41-.27.23-.75.35-1.16.68-2.59,1.46-5.32,2-7.87Z" transform="translate(-1028.82 -304.16)"/><path class="cls-1" d="M1149.44,491.36a18.67,18.67,0,0,0,.53,3.08c0,.34-.06.81.1,1.07a17.34,17.34,0,0,0,3.09,3.1c1.09,1,2.17,2.25,3.28,3.1-.75.82-2.52.6-3.55,1.16-1.63-1.09-2.57-2.86-4-4.17-.67,2-1.42,3.65-2.13,5.4-1.54.07-2.28.4-3.81.45,1.31-2.54,2.68-5.07,4-8a37.67,37.67,0,0,0-.52-4.7c.94,0,1.84-.48,3-.52" transform="translate(-1028.82 -304.16)"/><path class="cls-1" d="M1129.43,493.29a4.86,4.86,0,0,1,3.37.54,4.92,4.92,0,0,1,1.85,5.14c-1.29,5-10.33,3.74-8.66-2.66a4.47,4.47,0,0,1,3.44-3" transform="translate(-1028.82 -304.16)"/><path class="cls-1" d="M1184.14,337.94c0-.1.09-.05.09,0,2.44-2.74,4.69-5.69,7.08-8.49,2.86,2.09,5,4.89,7.35,7.52a10.15,10.15,0,0,1-2.21,1.86c-1.4-1.85-3-3.53-4.52-5.22-.68.5-1.06,1.29-1.76,1.77,1.2,1.63,2.76,2.88,3.8,4.68-1,.1-1,1.37-1.85,1.34-.42,0-1.32-1.2-1.87-1.85-.73-.9-1.3-2-1.86-2.05a43.45,43.45,0,0,0-3.18,3.46c-.29-.65-1.26-1.19-1.68-2,0-.49.82-.65.61-1.06" transform="translate(-1028.82 -304.16)"/><path class="cls-1" d="M1058.53,364.68a17.19,17.19,0,0,1-1.07,2.38c-1.66-.52-2.49-1.34-4.25-2a32.8,32.8,0,0,0-1.94,3.89c1.37.75,2.88,1.37,4.33,2a11.15,11.15,0,0,1-1,2.39c-3.55-1.11-6.55-2.78-10-4,.23-1.06.78-1.82,1-2.83a23.88,23.88,0,0,1,3.73,1.68,19.13,19.13,0,0,1,1.85-4.16c-1.1-.74-2.78-1.42-3.54-2a23.25,23.25,0,0,1,1.23-2.56c3.39,1.52,5.92,3.22,9.57,5.14" transform="translate(-1028.82 -304.16)"/><path class="cls-1" d="M1214.68,370.43c-1.16-1.5-3.14.3-4.68.18-.17-.87-.7-1.38-.82-2.31,3.42-1.09,6.8-2.53,10.2-3.36.29,1,.8,1.74,1.06,2.75-1.37.18-2.49.87-4.08,1.06,2,1.05,3.85,2.19,5.76,3.27,0,1,.83,2.09.89,3.36-2-1.1-4-2.6-5.85-3.62-.83,1.17-1.74,2.48-2.74,3.71-.68.54-.64,1.44-1.86,1.78-.25-1-.68-1.75-.89-2.75a40.41,40.41,0,0,0,3-4.07" transform="translate(-1028.82 -304.16)"/><path class="cls-1" d="M1075.52,471.61a17.55,17.55,0,0,1-2,1.25c-1.19-1-2.06-1.84-3.11-2.83.36-1.24.61-1.2.89-2.3a22.19,22.19,0,0,0-2.13-2c-1.45,3.59-3.05,7.25-4.42,11.51a22.83,22.83,0,0,0,2.57,2.23c3.73-2,7.6-3.94,10.36-6.12A18.59,18.59,0,0,0,1075.52,471.61Zm-7.79,5.07,1.41-4,2,1.66Z" transform="translate(-1028.82 -304.16)"/><path class="cls-1" d="M1130.69,376.22a33.08,33.08,0,1,0,33.08,33.08,33.09,33.09,0,0,0-33.08-33.08M1101.23,415a4.43,4.43,0,0,1,.22-3.19s7.36-8.79,17.26-11.53c0,0,1.64-.23,1.53-2.86v-3.19s-3.84-.77-13.51,7.36c0,0-2.53.77-3.19-.66a2.92,2.92,0,0,1-.11-3.07s4.07-5.61,16.59-9.34v-6.38a3.52,3.52,0,0,1,3.3-2.64s1.76-.33,2.53,3v18.35s.66,3-3.52,3.85a31.31,31.31,0,0,0-17.14,10.77,3.32,3.32,0,0,1-4-.44m53.08,14.22c-2.34,2-4.36-.55-4.36-.55-6.81-11.87-16.65-11.32-16.65-11.32v3.95a2.32,2.32,0,0,0,2,2.42,13.1,13.1,0,0,1,7.83,13.3c-2.68,3.19-4.81,0-4.81,0-.86-8.78-7-9.31-7.46-9.34s-6.59.56-7.45,9.34c0,0-2.13,3.19-4.81,0a13.1,13.1,0,0,1,7.82-13.3,2.32,2.32,0,0,0,2-2.42v-3.95s-9.84-.55-16.66,11.32c0,0-2,2.52-4.35.55,0,0-1.57-.77-.34-4,0,0,4.47-10.66,21.24-14.07v-4.06s-.33-1.73,2.5-2h.07c2.83.25,2.5,2,2.5,2v4.06c16.77,3.41,21.24,14.07,21.24,14.07,1.23,3.19-.34,4-.34,4m1.5-13.89a31.31,31.31,0,0,0-17.14-10.77c-4.18-.88-3.52-3.85-3.52-3.85V382.37c.77-3.3,2.53-3,2.53-3A3.52,3.52,0,0,1,1141,382v6.38c12.53,3.73,16.6,9.34,16.6,9.34a2.92,2.92,0,0,1-.11,3.07c-.66,1.43-3.19.66-3.19.66-9.67-8.13-13.52-7.36-13.52-7.36v3.19c-.11,2.64,1.54,2.85,1.54,2.85,9.89,2.75,17.26,11.54,17.26,11.54a4.43,4.43,0,0,1,.22,3.19,3.32,3.32,0,0,1-4,.44" transform="translate(-1028.82 -304.16)"/><path class="cls-1" d="M1082.7,418.14c-1.85-.18-3.48-.17-5.58-.32l0,.42c1.27.19,1.68,1.15,1.68,2.47,2.35,1.66,4.24,3.73,6.84,5.16.72-1.79-.78-3-1.29-4.28A13.18,13.18,0,0,0,1082.7,418.14Z" transform="translate(-1028.82 -304.16)"/><path class="cls-1" d="M1196,408.62c.23.75,3.37,2,3.37,2C1198.86,409.26,1196,408.62,1196,408.62Z" transform="translate(-1028.82 -304.16)"/><path class="cls-1" d="M1140.88,461.34c-3,.52-1.91,5.37,1.06,4.88C1144.19,465.85,1144.35,460.71,1140.88,461.34Z" transform="translate(-1028.82 -304.16)"/><path class="cls-1" d="M1132.27,328.61a78.95,78.95,0,1,0,79,78.95A79,79,0,0,0,1132.27,328.61Zm56.14,65.48c.93-.12-1.63,3.37-1.63,3.37,3.14.52,1.69,1.17,1.69,1.17a8.28,8.28,0,0,0-1.8.64c-.82.69-2.21,1.8-2.21,1.8-3.38,1.92-2.91-.88-2.91-.88C1182.66,396.36,1188.41,394.09,1188.41,394.09Zm-4.13-35.76s1.69.24.18,2.56a7.36,7.36,0,0,0-3.84,3.32s.46,1.86,4.65.29a2.48,2.48,0,0,1,2,2.67s-1.63.76-7.16-.52c0,0-1.33-1.16-5.57,3.89,0,0-10.7,12.45-13.14,12.85,0,0-1.34.76-.59-2.5a142.51,142.51,0,0,1,12.56-14.18s1.45-.7-.81-1.51c0,0-1.46-.59-.58-1.23,0,0,3.37.47,4.36-.17C1176.32,363.8,1183.18,357.87,1184.28,358.33Zm-21.1,12.5a5.25,5.25,0,0,1,1-2s1.4-1,2.21,2.5a3.38,3.38,0,0,1-3,2.5S1162.25,373.92,1163.18,370.83Zm-16.57-5.52s1.45-1.92,6.05-4.47c0,0,4.41-2.85,6.33-5.47,0,0-2.5-2-3.14-4.19,0,0-.11-.87,1.05-1.28,0,0,5.41.06,7.27,0,0,0,4.71.41,4.3,4.37,0,0-9.07,3.66-15.06,9.3,0,0-1,.87,1.57-.12a11.57,11.57,0,0,1,4.19-.29,4.81,4.81,0,0,0,3.66-1.1s8.54-5.06,10.23-5.47a2.49,2.49,0,0,0,.81-.87s4.25-1.28,5.06-.93c0,0,.47-.06.18,3a2.39,2.39,0,0,1-1.4,2.27l-2-1.63s-1.92-1.57-10.35,3.49c0,0-4.89,3.31-5.64,5.64,0,0-.41.41,1.57-.06,0,0,2.21-.29,2.44-.23,0,0,.52.17-.52,1.1a6.43,6.43,0,0,1-2.74.7s-2,.23-5.69,3.66c0,0-.12.93-2.39.7,0,0-1.22-1.11,2.79-4.53,0,0,4.48-4.66,5.06-4.66,0,0-3.08-.87-9.13,2.45a15.13,15.13,0,0,0-2.26,2.32s-1.34,2.85-3.2,2C1145.68,371,1143.58,369.44,1146.61,365.31Zm-26.31-2.4c1.81.66,3.51.78,4.32,1.53,2.06,1.92-.24,4.75-3.37,4.66-.71-2.51-3.63-3.62-4.07-6.69C1118.47,361.62,1119,362.44,1120.3,362.91Zm-50.47,37.81c1.17-.23,2.54,0,3.55-.91-.1-.85-1.4-1.74-1.65-2.9-1.16-.15-2.93.23-2.89-1,.4-.77,1.2-.45,1.75-1s.55-2,1.27-2.73c1.59.28,3.18.64,4.09,2.06s.45,3.55,1.08,5.38a9.32,9.32,0,0,1,3.07.18c.33,1,1.23,1.55,2,2.22,1.48-2.91-1.65-6.93-1.09-10.29,1.28-.36,1.85.74,2.88,1a16.45,16.45,0,0,1,1.78,5.56c0,.39-.17.88-.07,1.26.17.65.77,1,.89,1.59,1.13,5.26-5.76,5.25-9.87,6a17.74,17.74,0,0,1-3.4.64c-3.41-.09-6.92-2.42-9.91-2.95A10.09,10.09,0,0,1,1069.83,400.72Zm17.45,27.48-.84-.05c-.17-.33-1-.1-1.39-.22-.84-1.65-2.81-2.33-4.86-3.08a20.68,20.68,0,0,0-2.59-1.13c-2-.3-3.6.71-5.1,1,.2-2.51,1.65-4.87,2.78-6.84-3.89,0-7.34-1.61-10.47-.6a7.72,7.72,0,0,0-1.76,1.3c-.66.5-1.49.77-2,1.14-.83.57-1.81,2.2-3,.8,0-.89,1.06-1.28,1.51-1.87,1.32-1.7,2.31-5.2,4.8-5.6a14.09,14.09,0,0,1,2.1.12c6.6.08,14.8.31,20.17,2.29,1.41.52,3.41,1.29,2.91,3-1.13.42-3,0-4.48,0,.25,1,1.35,1.83,2.2,3.07.48.7.67,1.64,1.12,2.3.61.89,1.85,1.4,1.82,2.63S1089,428.21,1087.28,428.2Zm4.17-58.36c.85-.12,1.2.85,2,.92,2.73-1.15,3.85-3.76,5.82-5.56,2.13-1.94,4.55-3.41,6.45-5.62a37.08,37.08,0,0,0-2.53-8.72c-1.52-3.17-5.58-4.46-4.39-7.55,1.77-.82,2.93-.12,4.33.22s2.78-.19,3.27,2.24c.11.55-.21.89-.11,1.51.43,2.54,2.19,5.31,3,7.73,2.92-1.87,2.09-7.13,6.35-7.22a3.41,3.41,0,0,1,0,3.11c-1.11,2.73-3.82,5.29-5.12,7.91.31,2.76,1.29,5.26.94,7.5s-2.35,4.47-3.76,6.28a14.08,14.08,0,0,1-6.51,5c-.39-2.95,2.94-3.95,4.15-6.09a10.29,10.29,0,0,0,1-7.41c-5.78,2.27-5.49,9-12,10.92C1092.89,374.45,1091.78,371.9,1091.45,369.84Zm10.79,98.07h-2.92v-9.25h-3.56v-1.87c2.09,0,3.68-.4,4.09-2,0-.12,0-.24.08-.25h2.31Zm21.93-1c-2.31,2.26-7.84,1.67-8.27-2a18.92,18.92,0,0,1,2.77-.1c1.13,2.81,5,.84,4.34-2.31-2.19,2.05-7,.82-7.37-2.67-.42-3.77,2.18-5.59,5.61-5.32C1126.79,454.89,1127.3,463.87,1124.17,466.92Zm18.12,1.34a5.35,5.35,0,0,1-5.15-2c-1.77-2.83-1.47-9.1,1.35-10.92,2.64-1.74,7.5-.8,7.64,2.56h-2.67c-.47-.39-.41-.92-.89-1.16-2-1.08-3.69,1.33-3.46,3.48,1.09-1.48,4.81-1,6,.09a4,4,0,0,1,1.32,2.56A4.68,4.68,0,0,1,1142.29,468.26Zm22.79-.88a5.92,5.92,0,0,1-6.47-.09c-2.82-2.33-2.33-10.1.07-11.92a4.47,4.47,0,0,1,2.41-.8,5.85,5.85,0,0,1,4.08.89C1167.68,457.5,1167.88,465.29,1165.08,467.38Zm-34.23-21.6a36.52,36.52,0,1,1,36.51-36.52A36.52,36.52,0,0,1,1130.85,445.78Zm72.62-37.33a7.22,7.22,0,0,0-4-.35c1.1,1.11,4.65,4.94,4.65,4.94a5,5,0,0,1,.41,3.73c-1.34,1.68-4.19-.88-4.19-.88a28,28,0,0,0-6.16-5.35c-3.78-2.85-4.13-1.8-4.13-1.8.4.23,1,1.57,1,1.57.87,2.33,1.92,1.28,1.92,1.28V412c.23,5-1.69,3.43-1.69,3.43-2.15-1-3-6.11-3-6.11-2.1.88-9.42,2.74-9.42,2.74a21.42,21.42,0,0,1-6.69,2.26c-4.77.35-1.92-2.61-1.92-2.61,3.55-4.54,6.4-3.72,6.4-3.72,2.21.29,10.11-1.46,10.11-1.46l-.11-.52a2.79,2.79,0,0,1,1.57-1.16c.29.11.75.93.75.93,1.8-.29,4.77-.41,4.77-.41-2.09-2.68-1.63-4.65-1.63-4.65.29-.7.47-.06.47-.06.52,1,4.13,4.53,4.13,4.53.93.35,4.24-.75,4.24-.75.93.23,6.69-.64,6.69-.64,1.91,1.8-.12,3.78-.12,3.78A3.35,3.35,0,0,1,1203.47,408.45Z" transform="translate(-1028.82 -304.16)"/><path class="cls-1" d="M1120.18,456.79a2.4,2.4,0,1,0,2.29,4A2.41,2.41,0,0,0,1120.18,456.79Z" transform="translate(-1028.82 -304.16)"/><path class="cls-1" d="M1161.45,456.62c-.1,0-.2,0-.27,0-2.36.59-2,8.85-.09,9.51,2.74.94,3-2,3-4.64C1164.13,459,1164,456.13,1161.45,456.62Z" transform="translate(-1028.82 -304.16)"/></svg>